# xmcd
#
# Track frame offsets: 
#        150
#        33662
#        59652
#        93712
#        115945
#        162484
#        183722
#        217970
#        242382
#        287190
#        297202
#
# Disc length: 4350 seconds
#
# Revision: 1
# Processed by: cddbd v1.5.2PL0 Copyright (c) Steve Scherf et al.
# Submitted via: ExactAudioCopy v1.0b3
#
DISCID=ac10fc0b
DTITLE=Charles Rutherford's Jazz Pacific Orchestra - Collage
DYEAR=1997
DGENRE=Big Band
TTITLE0=Sambandrea Swing
TTITLE1=Broadbottom
TTITLE2=Royal
TTITLE3=From This Moment On
TTITLE4=Where Did Summer Go
TTITLE5=Collage
TTITLE6=TNT
TTITLE7=Saturnina
TTITLE8=Faviana
TTITLE9=Almost Like Being in Love
TTITLE10=Mission to Monterey
EXTD=YEAR: 1997
EXTT0=
EXTT1=
EXTT2=
EXTT3=
EXTT4=
EXTT5=
EXTT6=
EXTT7=
EXTT8=
EXTT9=
EXTT10=
PLAYORDER=
